<svg xmlns="http://www.w3.org/2000/svg" width="80" height="27" viewBox="0 0 80 27">
  <g fill="none" fill-rule="evenodd">
    <polyline fill="#005C9C" points="34.765 25.902 28.25 25.902 32.322 .97 38.838 .97 34.765 25.902"/>
    <path fill="#005C9C" d="M22.7688257.970358337L16.5568335 18.118024 15.8225064 14.425327 15.8231758 14.4266609 13.6302355 3.21585423C13.6302355 3.21585423 13.3658242.970358337 10.5396355.970358337L.271774659.970358337.151952827 1.39184732C.151952827 1.39184732 3.2927575 2.04275436 6.96640117 4.24290017L12.6268113 25.9022319 19.4151532 25.9022319 29.7807458.970358337 22.7688257.970358337M66.8451864 17.0829751L70.2691454 7.75219609 72.1949969 17.0829751 66.8451864 17.0829751zM74.0144144 25.9022319L79.9968039 25.9022319 74.7808725.970358337 69.5428511.970358337C67.123655.970358337 66.5352561 2.82837781 66.5352561 2.82837781L56.8189774 25.9022319 63.6093275 25.9022319 64.9682008 22.1995312 73.2506339 22.1995312 74.0144144 25.9022319 74.0144144 25.9022319zM57.3283875 6.96590573L58.2575088 1.61126168C58.2575088 1.61126168 55.3884788.524193576 52.3976187.524193576 49.1644374.524193576 41.487138 1.93271372 41.487138 8.7779082 41.487138 15.2196204 50.4978737 15.2996499 50.4978737 18.6815655 50.4978737 22.063481 42.4155899 21.4592579 39.7487173 19.3258034L38.7794324 24.9232037C38.7794324 24.9232037 41.6879567 26.3317239 46.134083 26.3317239 50.57954 26.3317239 57.2875544 24.0368764 57.2875544 17.7959051 57.2875544 11.3135112 48.1951524 10.709955 48.1951524 7.8915809 48.1951524 5.07320678 54.5403544 5.43534051 57.3283875 6.96590573"/>
    <path fill="#EE9F3F" d="M15.8231758,14.4266609 L13.6302355,3.21585423 C13.6302355,3.21585423 13.3658242,0.970358337 10.5396355,0.970358337 L0.271774659,0.970358337 L0.151952827,1.39184732 C0.151952827,1.39184732 5.08740741,2.41155721 9.82204327,6.22896692 C14.3471583,9.87831456 15.8231758,14.4266609 15.8231758,14.4266609"/>
  </g>
</svg>
