<svg xmlns="http://www.w3.org/2000/svg" width="70" height="42" viewBox="0 0 70 42">
  <g fill="none" fill-rule="evenodd">
    <polygon fill="#E15D29" points="25 37 44 37 44 4 25 4"/>
    <path fill="#D2232C" d="M26.7377528,21 C26.7377528,14.3013921 29.9690185,8.33574381 35,4.49015062 C31.3197817,1.67764527 26.6775224,0 21.6311236,0 C9.68434128,0 0,9.40255618 0,21 C0,32.5974438 9.68434128,42 21.6311236,42 C26.6775224,42 31.3197817,40.3223547 35,37.5098494 C29.9690185,33.6644557 26.7377528,27.6986079 26.7377528,21"/>
    <path fill="#EC972D" d="M70,20.9993015 C70,32.598528 60.3152605,42 48.367987,42 C43.3213807,42 38.6789306,40.3222989 35,37.5097 C40.0311883,33.6655754 43.2613535,27.6983318 43.2613535,20.9993015 C43.2613535,14.3004709 40.0311883,8.33462414 35,4.48890304 C38.6789306,1.67770107 43.3213807,0 48.367987,0 C60.3152605,0 70,9.40147199 70,20.9993015 L70,20.9993015 Z"/>
  </g>
</svg>
