<svg xmlns="http://www.w3.org/2000/svg" width="78" height="23" viewBox="0 0 78 23">
  <defs>
    <linearGradient id="icon_mir-a" x1=".008%" y1="50%" y2="50%">
      <stop offset="30%" stop-color="#00B4E6"/>
      <stop offset="100%" stop-color="#088CCB"/>
    </linearGradient>
  </defs>
  <g fill="none" fill-rule="evenodd">
    <path fill="#4DB45E" d="M20.6013048 2.11613398e-7L20.6013048.0096662094C20.5918546.0096662094 17.6150606 2.11613398e-7 16.8212488 2.90946554 16.0935881 5.57728093 14.0429077 12.9427712 13.9862069 13.1457572L13.4191985 13.1457572C13.4191985 13.1457572 11.3212675 5.61594492 10.5841566 2.89979955 9.79034483-.00966578617 6.80410065 2.11613398e-7 6.80410065 2.11613398e-7L0 2.11613398e-7 0 22.1351351 6.80410065 22.1351351 6.80410065 8.98937815 7.08760485 8.98937815 7.37110904 8.98937815 11.3401678 22.1351351 16.0652377 22.1351351 20.0342964 8.99904415 20.6013048 8.99904415 20.6013048 22.1351351 27.4054054 22.1351351 27.4054054 2.11613398e-7 20.6013048 2.11613398e-7zM47.1550498 0C47.1550498 0 45.1065789.18365396 44.1454481 2.31983949L39.1941679 13.1457571 38.6116643 13.1457571 38.6116643 0 31.6216216 0 31.6216216 22.1351351 38.2233286 22.1351351 38.2233286 22.1351351C38.2233286 22.1351351 40.3688834 21.9418152 41.3300142 19.8152956L46.1842105 8.98937802 46.7667141 8.98937802 46.7667141 22.1351351 53.7567568 22.1351351 53.7567568 0 47.1550498 0zM55.8648649 10.5405405L55.8648649 22.1351351 62.6560856 22.1351351 62.6560856 15.3638919 70.0132414 15.3638919C73.2202068 15.3638919 75.9366951 13.3510703 76.9459459 10.5405405L55.8648649 10.5405405z"/>
    <path fill="url(#icon_mir-a)" d="M70.4033736,0 L54.8108108,0 C55.589952,4.40011501 58.7746915,7.93231742 62.8944005,9.08280621 L62.8944005,9.08280621 C63.8293699,9.34519839 64.8130356,9.48648649 65.8259192,9.48648649 L77.8441718,9.48648649 C77.9513037,8.96170213 78,8.42682576 78,7.87176538 C78,3.52211041 74.6009966,0 70.4033736,0 Z"/>
  </g>
</svg>
