<svg xmlns="http://www.w3.org/2000/svg" xmlns:xlink="http://www.w3.org/1999/xlink" width="58" height="53" viewBox="0 0 58 53">
  <defs>
    <polygon id="icon_bank-a" points="0 0 0 52.63 58 52.63 58 0 0 0"/>
  </defs>
  <g fill="none" fill-rule="evenodd">
    <mask id="icon_bank-b" fill="#fff">
      <use xlink:href="#icon_bank-a"/>
    </mask>
    <path fill="#71BB3E" d="M2.02315072 18.2592593L55.9764227 18.2592593C56.9076224 18.2592593 57.7184389 17.6225934 57.9409962 16.7166209 58.163722 15.8099722 57.7415377 14.8681598 56.9168956 14.4343614L29.9402597.232283299C29.3514946-.0774277662 28.6480788-.0774277662 28.0593137.232283299L1.08267775 14.4343614C.258710121 14.8681598-.164148647 15.8099722.0592516192 16.7166209.281808866 17.6225934 1.09245678 18.2592593 2.02315072 18.2592593zM55.9767442 42.962963L2.02325581 42.962963C.90625 42.962963 0 43.8113177 0 44.8569642L0 50.7356284C0 51.7819062.90625 52.6296296 2.02325581 52.6296296L55.9767442 52.6296296C57.0944244 52.6296296 58 51.7819062 58 50.7356284L58 44.8569642C58 43.8113177 57.0944244 42.962963 55.9767442 42.962963zM13.7190537 22.8736525C14.447569 22.8736525 15.037037 22.3215219 15.037037 21.64053 15.037037 20.959538 14.447569 20.4074074 13.7190537 20.4074074L5.61427967 20.4074074C4.88642335 20.4074074 4.2962963 20.959538 4.2962963 21.64053 4.2962963 22.3215219 4.88642335 22.8736525 5.61427967 22.8736525L5.77902759 22.8736525 5.77902759 38.3485697 5.61427967 38.3485697C4.88642335 38.3485697 4.2962963 38.9007003 4.2962963 39.5816923 4.2962963 40.2626842 4.88642335 40.8148148 5.61427967 40.8148148L13.7190537 40.8148148C14.447569 40.8148148 15.037037 40.2626842 15.037037 39.5816923 15.037037 38.9007003 14.447569 38.3485697 13.7190537 38.3485697L13.5543057 38.3485697 13.5543057 22.8736525 13.7190537 22.8736525zM26.6079426 22.8736525C27.3357989 22.8736525 27.9259259 22.3215219 27.9259259 21.64053 27.9259259 20.959538 27.3357989 20.4074074 26.6079426 20.4074074L18.5031686 20.4074074C17.7753122 20.4074074 17.1851852 20.959538 17.1851852 21.64053 17.1851852 22.3215219 17.7753122 22.8736525 18.5031686 22.8736525L18.6679165 22.8736525 18.6679165 38.3485697 18.5031686 38.3485697C17.7753122 38.3485697 17.1851852 38.9007003 17.1851852 39.5816923 17.1851852 40.2626842 17.7753122 40.8148148 18.5031686 40.8148148L26.6079426 40.8148148C27.3357989 40.8148148 27.9259259 40.2626842 27.9259259 39.5816923 27.9259259 38.9007003 27.3357989 38.3485697 26.6079426 38.3485697L26.4431946 38.3485697 26.4431946 22.8736525 26.6079426 22.8736525zM39.4968314 22.8736525C40.2246878 22.8736525 40.8148148 22.3215219 40.8148148 21.64053 40.8148148 20.959538 40.2246878 20.4074074 39.4968314 20.4074074L31.3920574 20.4074074C30.6642011 20.4074074 30.0740741 20.959538 30.0740741 21.64053 30.0740741 22.3215219 30.6642011 22.8736525 31.3920574 22.8736525L31.5568054 22.8736525 31.5568054 38.3485697 31.3920574 38.3485697C30.6642011 38.3485697 30.0740741 38.9007003 30.0740741 39.5816923 30.0740741 40.2626842 30.6642011 40.8148148 31.3920574 40.8148148L39.4968314 40.8148148C40.2246878 40.8148148 40.8148148 40.2626842 40.8148148 39.5816923 40.8148148 38.9007003 40.2246878 38.3485697 39.4968314 38.3485697L39.3320835 38.3485697 39.3320835 22.8736525 39.4968314 22.8736525zM51.3117271 22.8736525C52.0395388 22.8736525 52.6296296 22.3215219 52.6296296 21.64053 52.6296296 20.959538 52.0395388 20.4074074 51.3117271 20.4074074L43.2067914 20.4074074C42.4789797 20.4074074 41.8888889 20.959538 41.8888889 21.64053 41.8888889 22.3215219 42.4789797 22.8736525 43.2067914 22.8736525L43.3715292 22.8736525 43.3715292 38.3485697 43.2067914 38.3485697C42.4789797 38.3485697 41.8888889 38.9007003 41.8888889 39.5816923 41.8888889 40.2626842 42.4789797 40.8148148 43.2067914 40.8148148L51.3117271 40.8148148C52.0395388 40.8148148 52.6296296 40.2626842 52.6296296 39.5816923 52.6296296 38.9007003 52.0395388 38.3485697 51.3117271 38.3485697L51.1469893 38.3485697 51.1469893 22.8736525 51.3117271 22.8736525z" mask="url(#icon_bank-b)"/>
  </g>
</svg>
