<svg xmlns="http://www.w3.org/2000/svg" xmlns:xlink="http://www.w3.org/1999/xlink" width="52" height="68" viewBox="0 0 52 68">
  <defs>
    <polygon id="icon_yandex_money-a" points="0 67.294 0 0 52 0 52 67.294"/>
  </defs>
  <g fill="none" fill-rule="evenodd">
    <mask id="icon_yandex_money-b" fill="#fff">
      <use xlink:href="#icon_yandex_money-a"/>
    </mask>
    <path fill="#FACA22" d="M0.000737515424,33.3807801 C0.000737515424,29.6020658 0.322540079,27.2042264 8.27344803,21.3625475 C14.856019,16.5264611 35.9548603,-3.0281333e-14 35.9548603,-3.0281333e-14 L35.9548603,27.5879775 L52,27.5879775 L52,67.2941176 L5.01240066,67.2941176 C2.25605968,67.2941176 0,65.0736361 0,62.3605207 L0.000737515424,33.3807801" mask="url(#icon_yandex_money-b)"/>
    <polyline fill="#C9A521" points="35.15 27.529 35.15 43.484 6.118 63.216 42.824 51.301 42.824 27.529 35.15 27.529"/>
    <path fill="#000" d="M21.9188815,26.5442482 C23.6761363,24.5832419 26.2427357,23.8907769 27.6519473,24.9983454 C29.0611589,26.1059139 28.7795171,28.5937193 27.0220116,30.5547257 C25.2657591,32.5154974 22.698408,33.2070237 21.2891964,32.0994552 C19.8797342,30.9921214 20.1621278,28.50502 21.9188815,26.5442482"/>
  </g>
</svg>
