<svg xmlns="http://www.w3.org/2000/svg" width="60" height="63" viewBox="0 0 60 63">
  <path fill="#F90" fill-rule="evenodd" d="M79.4462074,80.7227492 C77.7382337,77.2712623 74.7090782,74.738282 71.426819,72.7959052 C70.2888042,72.1221447 69.00378,71.646827 67.8838441,71.2825428 C65.3080866,70.4542804 62.8151111,70.2624524 59.9082255,69.7687078 C57.5465594,69.3675699 55.6806338,68.4032325 53.6781655,67.0533492 C52.6353025,66.3450975 51.7822672,65.3741453 51.0695806,64.3450777 C50.936844,64.1376578 50.2707818,63.3320746 50.337388,63.0551997 C50.337388,63.0551997 49.8730476,64.90119 50.7926891,67.4918132 C42.3394088,67.1157169 34.9289915,62.4603438 31.5349291,56.8170092 C25.2858387,46.4327822 27.4881257,33.8477302 35.8186603,28.289915 C44.146816,22.7302098 56.8467184,26.6522896 63.6448342,36.6878243 C67.9119138,42.9860201 69.00378,50.3132834 67.1759152,56.272709 C67.1621182,56.3190124 67.1449908,56.3624808 67.1311938,56.4087841 C63.5192339,53.799734 60.2198474,55.1307181 60.2198474,55.1307181 C63.8398953,54.7593466 66.7020595,57.62023 66.7020595,57.62023 C67.1221544,57.9916015 67.5260735,58.402189 67.8933593,58.8590799 C67.974714,58.9696409 68.0603505,59.0825643 68.142181,59.2025749 C69.0898923,60.4806409 69.6817361,61.9018692 69.9329367,63.3438867 C77.1202232,54.2887537 78.3077169,41.7471702 71.947299,32.0069372 C63.8465559,19.5924515 46.5722338,16.4225644 33.3770667,24.9173327 C20.1752389,33.4187158 16.044702,50.3638391 24.149727,62.7764348 C30.807494,72.9896231 46.4257001,76.1042298 55.3785271,73.2896497 C58.7635501,72.2327057 70.3535074,71.2267898 78.4214232,80.6906203 C78.4214232,80.6906203 79.1179339,81.482029 79.4971136,82.3839987 C79.4971136,82.3839987 79.6089169,82.7000897 79.9081691,82.5474778 C79.987145,82.5058993 80.2098001,82.2498136 79.4462074,80.7227492 Z M62.8336656,63.9618942 C62.8241505,63.9552794 62.8179656,63.9552794 62.8084504,63.9481922 C62.7898958,63.9481922 62.7760988,63.9411049 62.7637291,63.9368526 C62.7432715,63.9297654 62.7266199,63.9207882 62.7080653,63.9160634 C62.6971229,63.9160634 62.6804713,63.9160634 62.6757138,63.9113385 C62.645741,63.9018889 62.618147,63.8952741 62.5853196,63.883462 C62.2108975,63.8192044 61.83933,63.8744849 61.5310384,64.0729277 C60.8311973,64.5458829 60.7241516,65.6141666 61.2974408,66.4651081 C61.565293,66.8506541 61.9230635,67.1180793 62.3084281,67.2659664 C62.3160402,67.2659664 62.3227008,67.2659664 62.3393524,67.2749436 C62.3502948,67.277306 62.3669464,67.2867557 62.3783646,67.2867557 C62.3969192,67.2957329 62.4154738,67.2957329 62.4321253,67.3004577 C62.4478253,67.3004577 62.4554375,67.3075449 62.4663799,67.3117973 C62.4973043,67.3188845 62.5225195,67.3302241 62.552968,67.3325865 C62.9245355,67.4062938 63.2980061,67.3533758 63.6096281,67.1459558 C64.3137509,66.6730005 64.4207966,65.6094417 63.8465559,64.7603901 C63.5815583,64.3705918 63.2218847,64.0984417 62.8336656,63.9618942 Z M67.5151311,62.0010906 C66.9223358,61.7818585 66.8690508,62.4764083 67.0179633,62.9285743 C67.347664,63.9874083 67.7958287,64.7972438 68.1236265,64.9588329 C68.4366757,65.147826 68.8082432,64.7117244 68.5713154,63.6528904 C68.469503,63.1936372 68.1188689,62.2340246 67.5151311,62.0010906 L67.5151311,62.0010906 Z" transform="translate(-20 -20)"/>
</svg>
