<svg xmlns="http://www.w3.org/2000/svg" xmlns:xlink="http://www.w3.org/1999/xlink" width="93" height="40" viewBox="0 0 93 40">
  <defs>
    <polygon id="icon_contact-a" points="5.387 .299 45.145 .299 39.821 7.773 .429 7.773"/>
  </defs>
  <g fill="none" fill-rule="evenodd">
    <g transform="translate(3.09 2.681)">
      <mask id="icon_contact-b" fill="#fff">
        <use xlink:href="#icon_contact-a"/>
      </mask>
      <use fill="#1E86BC" xlink:href="#icon_contact-a"/>
      <polyline fill="#03A1FF" points="5.387 .299 .429 7.773 39.821 7.773 45.145 .299 5.387 .299" mask="url(#icon_contact-b)"/>
    </g>
    <path fill="#03A1FF" d="M65.586826,2.98075736 L65.3952904,2.98075736 L50.2136656,3.02857461 L46.5515399,10.4782336 L58.2647813,10.4768929 L42.1753483,39.6713332 L67.4478991,6.294001 C68.0247126,5.44178147 69.2864645,2.97360712 65.586826,2.98075736 Z"/>
    <path fill="#1A1919" d="M4.07962036 26.3772447C1.22688713 26.2945701-.73922156 23.1667858.266119761 20.1096103 1.13862186 17.4546358 2.69517974 15.2724712 5.13306624 13.8415289 6.67152974 12.8981438 8.3653401 12.4646603 10.1562422 12.4646603 11.4683053 12.4646603 12.4506977 12.783293 12.8077307 13.0800281L13.0420749 13.2699564 11.2233692 16.3056812 10.842946 16.0634668C10.6275787 15.9329748 9.99295151 15.7032733 8.98761019 15.7032733 8.04890914 15.7032733 7.09608565 16.0098399 6.30081565 16.5702402 5.12777033 17.3786645 4.20275039 18.7242508 3.76274807 20.2727252 3.23492181 22.1313413 3.91147503 23.157848 5.6675124 23.157848 6.43630282 23.157848 7.26025903 23.0161839 7.8670827 22.7811196L8.47169974 22.5460554 7.89003167 25.6617736C7.89003167 25.6617736 6.57664459 26.4639414 4.07962036 26.3772447M72.5747867 26.3772447C69.7216122 26.2945701 67.7559448 23.1667858 68.7612862 20.1096103 69.6337883 17.4546358 71.1912288 15.2724712 73.6277913 13.8415289 75.1666961 12.8981438 76.8605065 12.4646603 78.6514086 12.4646603 79.9634717 12.4646603 80.9458641 12.783293 81.3028971 13.0800281L81.5363587 13.2699564 79.7185356 16.3056812 79.3381124 16.0634668C79.1227451 15.9329748 78.4876766 15.7032733 77.4827766 15.7032733 76.5440755 15.7032733 75.5908107 16.0098399 74.795982 16.5702402 73.6229367 17.3786645 72.6979168 18.7242508 72.2579145 20.2727252 71.7300882 22.1313413 72.4062001 23.157848 74.1617961 23.157848 74.9314692 23.157848 75.7554254 23.0161839 76.3613664 22.7811196L76.9664248 22.5460554 76.3851981 25.6617736C76.3851981 25.6617736 75.071811 26.4639414 72.5747867 26.3772447M18.3335773 15.6304302C17.6989501 15.6304302 17.0329887 15.9097365 16.4045401 16.4415358 15.2619463 17.3733018 14.2782299 19.2314711 13.8916281 20.5904641 13.5482762 21.7975144 13.4891385 23.2324787 15.150732 23.2324787 15.7346067 23.2324787 16.4032161 22.9536192 17.0303408 22.4486334 18.0824627 21.57541 19.1213448 19.6278627 19.5123599 18.2536754 20.2599666 15.6304302 18.8102097 15.6304302 18.3335773 15.6304302zM13.8885388 26.3960141C10.8098465 26.3960141 9.39627834 24.1012332 10.3694028 20.6825234 11.0693464 18.2232869 12.5879502 15.8699633 14.4340181 14.3898631 15.9923413 13.1457209 17.8004552 12.4646603 19.5295716 12.4646603 22.64357 12.4646603 24.0178601 14.7093896 23.0314958 18.1799386 22.3319936 20.6364938 20.8416347 22.9777513 19.0449953 24.4511482 17.4646058 25.7279133 15.6834129 26.3960141 13.8885388 26.3960141L13.8885388 26.3960141zM27.6093736 26.1917853L27.3375166 20.8536824C27.3105957 20.0081662 27.2969146 19.2752663 27.3066237 18.5459416 26.9279658 19.4008425 26.4879635 20.3688066 26.0064765 21.4038042L23.7870465 26.1917853 20.4815125 26.1917853 26.7924786 12.6711236 30.5066808 12.6711236 30.7498516 17.783547C30.7608847 18.4284095 30.7608847 19.0384146 30.7480863 19.638588 31.0097928 19.0151763 31.307688 18.3515444 31.6492746 17.6222196L33.9499086 12.6711236 37.253236 12.6711236 30.9625709 26.1917853 27.6093736 26.1917853"/>
    <polyline fill="#1A1919" points="42.667 26.192 47.471 15.948 44.235 15.948 45.772 12.671 55.883 12.671 54.337 15.948 51.035 15.948 46.232 26.192 42.667 26.192"/>
    <path fill="#1A1919" d="M64.5099899,19.9420265 C64.5099899,19.9420265 65.1574156,16.8678691 65.1997829,16.6618527 C65.022811,16.9179207 62.8704626,19.9420265 62.8704626,19.9420265 L64.5099899,19.9420265 Z M63.1096615,26.1917853 L63.7932759,22.9201025 L60.9012647,22.9201025 L58.4673501,26.1917853 L54.5916225,26.1917853 L65.1896324,12.6711236 L69.1836354,12.6711236 L66.8600524,26.1917853 L63.1096615,26.1917853 L63.1096615,26.1917853 Z"/>
    <polyline fill="#1A1919" points="79.769 26.192 84.574 15.948 81.299 15.948 82.871 12.671 92.983 12.671 91.437 15.948 88.136 15.948 83.33 26.192 79.769 26.192"/>
    <path fill="#03A1FF" d="M50.9665682,0.157752226 L27.9046209,32.4594198 L27.8401872,32.5416476 C27.8401872,32.5416476 27.1556902,33.4336404 27.2898533,34.4427183 C27.3776773,35.1126067 27.9046209,35.6989266 29.5048701,35.6940108 C29.637268,35.6940108 29.7599567,35.7016079 29.8782321,35.7127802 L43.7733908,35.7127802 L47.7828403,28.182681 L37.0820014,28.182681 L50.9665682,0.157752226 Z"/>
    <polyline fill="#03A1FF" points="51.549 28.183 45.896 35.713 81.987 35.713 86.511 28.171 51.549 28.183"/>
  </g>
</svg>
