<?xml version="1.0" encoding="UTF-8"?>
<svg width="36px" height="36px" viewBox="0 0 36 36" version="1.1" xmlns="http://www.w3.org/2000/svg" xmlns:xlink="http://www.w3.org/1999/xlink">
    <!-- Generator: Sketch 43.2 (39069) - http://www.bohemiancoding.com/sketch -->
    <title>clock-circular-outline</title>
    <desc>Created with Sketch.</desc>
    <defs></defs>
    <g id="Zaymer-Home-Page" stroke="none" stroke-width="1" fill="none" fill-rule="evenodd">
        <g id="Zaymer---Home-Page---1140" transform="translate(-389.000000, -553.000000)" fill="#ABD586">
            <g id="Слайдер" transform="translate(0.000000, 160.000000)">
                <g id="Подстрочник" transform="translate(389.000000, 337.000000)">
                    <g id="clock-circular-outline" transform="translate(0.000000, 56.000000)">
                        <path d="M17.9367692,0.125538462 C8.04646154,0.125538462 0,8.172 0,18.0623077 C0,27.9530769 8.04646154,35.9995385 17.9367692,35.9995385 C27.8275385,35.9995385 35.874,27.9530769 35.874,18.0623077 C35.874,8.172 27.8275385,0.125538462 17.9367692,0.125538462 Z M17.9367692,32.1826154 C10.152,32.1826154 3.81692308,25.8489231 3.81692308,18.0623077 C3.81692308,10.2756923 10.152,3.94246154 17.9367692,3.94246154 C25.7233846,3.94246154 32.0589231,10.2756923 32.0589231,18.0623077 C32.0589231,25.8489231 25.7233846,32.1826154 17.9367692,32.1826154 Z" id="Fill-1"></path>
                        <path d="M27.2847692,17.5089231 L19.224,17.5089231 L19.224,7.81661538 C19.224,7.00153846 18.5644615,6.34015385 17.7475385,6.34015385 C16.9329231,6.34015385 16.2710769,7.00153846 16.2710769,7.81661538 L16.2710769,18.9853846 C16.2710769,19.8023077 16.9329231,20.4623077 17.7475385,20.4623077 L27.2847692,20.4623077 C28.1016923,20.4623077 28.7630769,19.8023077 28.7630769,18.9853846 C28.7630769,18.1707692 28.1016923,17.5089231 27.2847692,17.5089231 Z" id="Fill-2"></path>
                    </g>
                </g>
            </g>
        </g>
    </g>
</svg>